<svg width="17" height="16" viewBox="0 0 17 16" fill="none" xmlns="http://www.w3.org/2000/svg">
<path d="M12.25 8.66668H8.91665V12C8.91665 12.3667 8.61665 12.6667 8.24998 12.6667C7.88331 12.6667 7.58331 12.3667 7.58331 12V8.66668H4.24998C3.88331 8.66668 3.58331 8.36668 3.58331 8.00001C3.58331 7.63334 3.88331 7.33334 4.24998 7.33334H7.58331V4.00001C7.58331 3.63334 7.88331 3.33334 8.24998 3.33334C8.61665 3.33334 8.91665 3.63334 8.91665 4.00001V7.33334H12.25C12.6166 7.33334 12.9166 7.63334 12.9166 8.00001C12.9166 8.36668 12.6166 8.66668 12.25 8.66668Z" fill="white"/>
</svg>
