<svg width="9" height="8" viewBox="0 0 9 8" fill="none" xmlns="http://www.w3.org/2000/svg">
<path d="M6.41667 0.666656C6.23333 0.666656 6.08333 0.816657 6.08333 0.99999V1.33332H3.41667V0.99999C3.41667 0.816657 3.26667 0.666656 3.08333 0.666656C2.9 0.666656 2.75 0.816657 2.75 0.99999V1.33332H2.41667C2.04667 1.33332 1.75333 1.63332 1.75333 1.99999L1.75 6.66666C1.75 7.03332 2.04667 7.33332 2.41667 7.33332H7.08333C7.45 7.33332 7.75 7.03332 7.75 6.66666V1.99999C7.75 1.63332 7.45 1.33332 7.08333 1.33332H6.75V0.99999C6.75 0.816657 6.6 0.666656 6.41667 0.666656ZM7.08333 6.66666H2.41667V3.33332H7.08333V6.66666ZM4.41667 4.33332C4.41667 4.14999 4.56667 3.99999 4.75 3.99999C4.93333 3.99999 5.08333 4.14999 5.08333 4.33332C5.08333 4.51666 4.93333 4.66666 4.75 4.66666C4.56667 4.66666 4.41667 4.51666 4.41667 4.33332ZM3.08333 4.33332C3.08333 4.14999 3.23333 3.99999 3.41667 3.99999C3.6 3.99999 3.75 4.14999 3.75 4.33332C3.75 4.51666 3.6 4.66666 3.41667 4.66666C3.23333 4.66666 3.08333 4.51666 3.08333 4.33332ZM5.75 4.33332C5.75 4.14999 5.9 3.99999 6.08333 3.99999C6.26667 3.99999 6.41667 4.14999 6.41667 4.33332C6.41667 4.51666 6.26667 4.66666 6.08333 4.66666C5.9 4.66666 5.75 4.51666 5.75 4.33332ZM4.41667 5.66666C4.41667 5.48332 4.56667 5.33332 4.75 5.33332C4.93333 5.33332 5.08333 5.48332 5.08333 5.66666C5.08333 5.84999 4.93333 5.99999 4.75 5.99999C4.56667 5.99999 4.41667 5.84999 4.41667 5.66666ZM3.08333 5.66666C3.08333 5.48332 3.23333 5.33332 3.41667 5.33332C3.6 5.33332 3.75 5.48332 3.75 5.66666C3.75 5.84999 3.6 5.99999 3.41667 5.99999C3.23333 5.99999 3.08333 5.84999 3.08333 5.66666ZM5.75 5.66666C5.75 5.48332 5.9 5.33332 6.08333 5.33332C6.26667 5.33332 6.41667 5.48332 6.41667 5.66666C6.41667 5.84999 6.26667 5.99999 6.08333 5.99999C5.9 5.99999 5.75 5.84999 5.75 5.66666Z" fill="white"/>
</svg>
