<svg width="16" height="16" viewBox="0 0 16 16" fill="none" xmlns="http://www.w3.org/2000/svg">
<path d="M7.99998 1.33333C4.31998 1.33333 1.33331 4.32 1.33331 8C1.33331 11.68 4.31998 14.6667 7.99998 14.6667C11.68 14.6667 14.6666 11.68 14.6666 8C14.6666 4.32 11.68 1.33333 7.99998 1.33333ZM6.19331 10.86L3.79998 8.46666C3.53998 8.20666 3.53998 7.78666 3.79998 7.52666C4.05998 7.26666 4.47998 7.26666 4.73998 7.52666L6.66665 9.44666L11.2533 4.85999C11.5133 4.59999 11.9333 4.59999 12.1933 4.85999C12.4533 5.11999 12.4533 5.53999 12.1933 5.79999L7.13331 10.86C6.87998 11.12 6.45331 11.12 6.19331 10.86Z" fill="#08A94C"/>
</svg>
