<svg width="16" height="16" viewBox="0 0 16 16" fill="none" xmlns="http://www.w3.org/2000/svg">
<path d="M7.99998 1.33334C4.31998 1.33334 1.33331 4.32001 1.33331 8.00001C1.33331 11.68 4.31998 14.6667 7.99998 14.6667C11.68 14.6667 14.6666 11.68 14.6666 8.00001C14.6666 4.32001 11.68 1.33334 7.99998 1.33334ZM7.99998 11.3333C7.63331 11.3333 7.33331 11.0333 7.33331 10.6667V8.00001C7.33331 7.63334 7.63331 7.33334 7.99998 7.33334C8.36665 7.33334 8.66665 7.63334 8.66665 8.00001V10.6667C8.66665 11.0333 8.36665 11.3333 7.99998 11.3333ZM8.66665 6.00001H7.33331V4.66668H8.66665V6.00001Z" fill="#7E93A8"/>
</svg>
