<svg width="16" height="16" viewBox="0 0 16 16" fill="none" xmlns="http://www.w3.org/2000/svg">
<path d="M2.98 13.6692H13.02C14.0467 13.6692 14.6867 12.5558 14.1733 11.6692L9.15333 2.99584C8.64 2.10917 7.36 2.10917 6.84667 2.99584L1.82667 11.6692C1.31333 12.5558 1.95333 13.6692 2.98 13.6692ZM8 9.00251C7.63333 9.00251 7.33333 8.70251 7.33333 8.33584V7.00251C7.33333 6.63584 7.63333 6.33584 8 6.33584C8.36667 6.33584 8.66667 6.63584 8.66667 7.00251V8.33584C8.66667 8.70251 8.36667 9.00251 8 9.00251ZM8.66667 11.6692H7.33333V10.3358H8.66667V11.6692Z" fill="#CAA904"/>
</svg>
