<svg width="101" height="100" viewBox="0 0 101 100" fill="none" xmlns="http://www.w3.org/2000/svg">
<path opacity="0.5" fill-rule="evenodd" clip-rule="evenodd" d="M47.3195 99.9785C36.1225 99.599 18.5408 99.9785 7.64286 87.8532C0.545379 79.9564 0.142863 65.7113 7.68686 55.8822C8.21367 45.7232 15.6921 38.3077 21.7291 30.1455C29.527 19.6027 34.7228 5.78463 47.3195 2.29806C62.6129 -1.93489 81.4018 -0.948848 92.3437 10.6005C103.193 22.0525 101.082 40.3538 98.0855 55.8822C95.6697 68.3997 91.1666 79.5186 81.5714 87.8532C72.8557 95.4238 58.8294 100.368 47.3195 99.9785Z" fill="#FEF6CD"/>
<ellipse cx="50.5" cy="49.9978" rx="42.8571" ry="42.8552" fill="#FCD305"/>
<path d="M44.38 26.9758C37.2093 28.8971 33.3521 33.0793 31.1096 39.2956C30.7028 40.4233 31.2559 41.6718 32.3661 42.1242L37.0288 44.0241C38.1501 44.481 39.4317 43.9605 39.9163 42.8511C41.4113 39.4291 42.6456 37.3587 46.1607 36.4169C48.9244 35.6764 52.8195 36.5391 53.5376 39.219C54.0804 41.2449 52.6867 42.7335 50.3678 44.9945C47.6636 47.6312 44.0473 50.9799 45.5357 56.5341L45.7713 57.4134C46.0903 58.6042 47.3143 59.3108 48.5051 58.9917L55.0156 57.2473C56.2064 56.9282 56.9131 55.7043 56.594 54.5136L56.455 53.995C55.4233 50.1448 66.634 46.9691 63.8422 36.5501C61.7397 28.7038 52.0054 24.9326 44.38 26.9758ZM52.4695 60.7659C49.0381 61.6853 46.9945 65.2248 47.9139 68.6561C48.8333 72.0872 52.373 74.1308 55.8045 73.2114C59.2359 72.292 61.2795 68.7525 60.3601 65.3212C59.4406 61.8899 55.9009 59.8465 52.4695 60.7659Z" fill="#F5F8FA"/>
<path opacity="0.5" fill-rule="evenodd" clip-rule="evenodd" d="M88.4108 88.4817C89.8827 87.4841 92.0493 86.1877 93.7982 86.5015C95.6592 86.8355 96.865 88.883 97.0978 90.7577C97.2986 92.3746 95.9055 93.5911 94.8313 94.8192C93.9792 95.7933 93.0283 96.6174 91.7576 96.8627C90.2389 97.1558 88.5321 97.2963 87.3915 96.2551C86.1686 95.1388 85.5926 93.2837 86.1133 91.7103C86.5773 90.3081 87.1871 89.3111 88.4108 88.4817Z" fill="#FEF6CD"/>
<path opacity="0.5" fill-rule="evenodd" clip-rule="evenodd" d="M0.553516 11.8944C0.772942 8.05239 3.14413 4.99039 6.62668 3.46061C11.9361 1.12835 18.8746 -2.3901 22.2892 2.34655C25.7122 7.09489 20.124 12.5826 16.5316 17.2005C13.5777 20.9975 9.9869 25.4918 5.45438 23.9866C0.938962 22.4871 0.278811 16.7042 0.553516 11.8944Z" fill="#FEF6CD"/>
</svg>
