<svg width="101" height="100" viewBox="0 0 101 100" fill="none" xmlns="http://www.w3.org/2000/svg">
<path opacity="0.5" fill-rule="evenodd" clip-rule="evenodd" d="M47.3195 99.9785C36.1225 99.5991 18.5408 99.9785 7.64286 87.8532C0.545379 79.9564 0.142863 65.7114 7.68686 55.8822C8.21367 45.7232 15.6921 38.3077 21.7291 30.1455C29.527 19.6027 34.7228 5.78468 47.3195 2.29811C62.6129 -1.93484 81.4018 -0.948802 92.3437 10.6006C103.193 22.0526 101.082 40.3539 98.0855 55.8823C95.6697 68.3997 91.1666 79.5187 81.5714 87.8533C72.8557 95.4239 58.8294 100.369 47.3195 99.9785Z" fill="#CDE5F8"/>
<ellipse cx="50.5" cy="49.9978" rx="42.8571" ry="42.8552" fill="#047CDD"/>
<path d="M47.722 66.9352L49.5187 66.4538L46.0414 53.4767L44.2447 53.9581C43.2523 54.224 42.2324 53.6352 41.9665 52.6429L40.8166 48.3515C40.5507 47.3592 41.1395 46.3393 42.1319 46.0734L52.1936 43.3775C53.1859 43.1116 54.2059 43.7005 54.4718 44.6927L59.5805 63.7579L61.3772 63.2765C62.3695 63.0106 63.3895 63.5994 63.6554 64.5917L64.8053 68.8831C65.0712 69.8754 64.4823 70.8953 63.49 71.1612L49.8348 74.8199C48.8425 75.0858 47.8225 74.497 47.5566 73.5047L46.4067 69.2133C46.1408 68.221 46.7297 67.2011 47.722 66.9352ZM44.3377 26.9961C40.7653 27.9533 38.6454 31.625 39.6026 35.1972C40.5598 38.7694 44.2317 40.8892 47.804 39.9321C51.3764 38.9749 53.4963 35.3032 52.5391 31.731C51.5819 28.1588 47.91 26.039 44.3377 26.9961Z" fill="#F5F8FA"/>
<path opacity="0.5" fill-rule="evenodd" clip-rule="evenodd" d="M88.4108 88.4817C89.8827 87.484 92.0493 86.1876 93.7982 86.5015C95.6592 86.8355 96.865 88.883 97.0978 90.7577C97.2986 92.3745 95.9055 93.591 94.8313 94.8191C93.9792 95.7932 93.0283 96.6173 91.7576 96.8626C90.2389 97.1557 88.5321 97.2962 87.3915 96.2551C86.1686 95.1387 85.5926 93.2836 86.1133 91.7102C86.5773 90.3081 87.1871 89.3111 88.4108 88.4817Z" fill="#CDE5F8"/>
<path opacity="0.5" fill-rule="evenodd" clip-rule="evenodd" d="M0.553516 11.8944C0.772942 8.05244 3.14413 4.99044 6.62668 3.46066C11.9361 1.1284 18.8746 -2.39005 22.2892 2.34659C25.7122 7.09493 20.124 12.5827 16.5316 17.2005C13.5777 20.9975 9.9869 25.4918 5.45438 23.9866C0.938962 22.4871 0.278811 16.7043 0.553516 11.8944Z" fill="#CDE5F8"/>
</svg>
